<svg width="62" height="278" viewBox="0 0 62 278" fill="none" xmlns="http://www.w3.org/2000/svg">
<path fill-rule="evenodd" clip-rule="evenodd" d="M44.4157 241.798C44.4748 241.622 44.7288 241.635 44.7692 241.817L47.7218 255.13C47.735 255.19 47.7767 255.239 47.8332 255.261L59.2543 259.807C59.4202 259.873 59.4039 260.113 59.2306 260.156L46.3726 263.347C46.3137 263.361 46.2658 263.404 46.2447 263.461L41.8281 275.325C41.7628 275.501 41.5076 275.477 41.4751 275.293L39.2071 262.463C39.1962 262.401 39.1543 262.349 39.0962 262.325L26.9856 257.338C26.8183 257.269 26.8409 257.025 27.0179 256.988L40.15 254.244C40.2139 254.231 40.2659 254.185 40.2866 254.123L44.4157 241.798Z" fill="#F08922"/>
<path fill-rule="evenodd" clip-rule="evenodd" d="M28.5245 7.36563C28.6042 7.07794 29.0095 7.07065 29.0996 7.35529L31.7732 15.8055C31.8031 15.9002 31.878 15.974 31.9732 16.0024L39.6073 18.2859C39.887 18.3696 39.8945 18.7629 39.6182 18.8573L31.4453 21.6469C31.3515 21.6789 31.2796 21.7551 31.2531 21.8506L29.0647 29.7434C28.985 30.0311 28.5797 30.0384 28.4896 29.7538L25.816 21.3035C25.786 21.2088 25.7111 21.135 25.6159 21.1066L17.9819 18.8231C17.7022 18.7394 17.6947 18.3461 17.971 18.2518L26.1438 15.4622C26.2376 15.4302 26.3095 15.3539 26.336 15.2585L28.5245 7.36563Z" fill="white"/>
</svg>
